<svg width="24" height="17" viewBox="0 0 24 17" fill="none" xmlns="http://www.w3.org/2000/svg">
  <path fill-rule="evenodd" clip-rule="evenodd" d="M21.7148 4.47329C22.1529 4.62744 22.1625 5.24357 21.7293 5.41123L11.972 9.1882C11.8509 9.23509 11.7162 9.233 11.5966 9.18238L4.77842 6.29709L11.5828 5.49656C11.8571 5.4643 12.0533 5.21581 12.021 4.94156C11.9887 4.66731 11.7402 4.47114 11.466 4.50341L2.96599 5.50342C2.95058 5.50524 2.93541 5.50773 2.92052 5.51088L1.82962 5.04924C1.40188 4.86823 1.43054 4.25267 1.87325 4.11219L11.6072 1.02342C11.7106 0.990588 11.822 0.992318 11.9243 1.02835L21.7148 4.47329ZM22.0903 6.3438C23.3897 5.84082 23.3611 3.99245 22.0467 3.52998L12.2563 0.0850384C11.9491 -0.0230467 11.6151 -0.0282355 11.3047 0.0702563L1.57079 3.15903C0.24268 3.58046 0.156692 5.42715 1.4399 5.97017L2.02441 6.21752L2.02441 15C2.02441 15.2761 2.24827 15.5 2.52441 15.5C2.80056 15.5 3.02441 15.2761 3.02441 15V6.6407L5.20105 7.56179L3.75515 11.8995C3.51088 12.6323 3.86308 13.4308 4.56897 13.7446L11.3518 16.7591C11.7396 16.9315 12.1823 16.9315 12.5702 16.7591L19.353 13.7446C20.0589 13.4308 20.4111 12.6323 20.1668 11.8995L18.7464 7.6382L22.0903 6.3438ZM17.8128 7.9996L12.333 10.1208C11.9696 10.2614 11.5657 10.2552 11.2069 10.1033L6.12484 7.95271L4.70383 12.2157C4.62241 12.46 4.73981 12.7262 4.9751 12.8307L11.7579 15.8453C11.8872 15.9028 12.0348 15.9028 12.1641 15.8453L18.9469 12.8307C19.1822 12.7262 19.2996 12.46 19.2181 12.2157L17.8128 7.9996Z" fill="#757575"/>
</svg>
