<svg width="21" height="14" viewBox="0 0 21 14" fill="none" xmlns="http://www.w3.org/2000/svg">
  <path fill-rule="evenodd" clip-rule="evenodd" d="M0 0.832865C0 0.82101 0.0135116 0.814135 0.0232433 0.820905L9.92894 7.71182C10.2722 7.95061 10.7278 7.95061 11.0711 7.71182L20.9768 0.820906C20.9846 0.815437 20.9924 0.8099 21 0.804297V12.5C21 13.0523 20.5523 13.5 20 13.5H1C0.447715 13.5 0 13.0523 0 12.5V0.832865ZM11.0711 6.49365C10.7278 6.73245 10.2722 6.73245 9.92894 6.49365L0.856063 0.182091C0.775679 0.126171 0.815247 0 0.913168 0H20.4057L11.0711 6.49365Z" fill="#757575"/>
</svg>
