<svg width="24" height="24" viewBox="0 0 24 24" fill="none" xmlns="http://www.w3.org/2000/svg">
  <circle cx="12" cy="12" r="12" fill="#DADADA"/>
  <path d="M10.528 12.9782C10.528 12.4022 10.648 11.9042 10.888 11.4842C11.14 11.0642 11.572 10.5842 12.184 10.0442C12.544 9.72022 12.802 9.43822 12.958 9.19822C13.126 8.95822 13.21 8.68222 13.21 8.37022C13.21 7.99822 13.072 7.68622 12.796 7.43422C12.52 7.17022 12.154 7.03822 11.698 7.03822C11.218 7.03822 10.822 7.18222 10.51 7.47022C10.21 7.74622 9.99399 8.09422 9.86199 8.51422L7.79199 7.65022C8.01999 6.88222 8.46399 6.22222 9.12399 5.67022C9.79599 5.10622 10.636 4.82422 11.644 4.82422C12.4 4.82422 13.072 4.97422 13.66 5.27422C14.248 5.57422 14.704 5.98822 15.028 6.51622C15.364 7.03222 15.532 7.60822 15.532 8.24422C15.532 8.86822 15.4 9.40222 15.136 9.84622C14.872 10.2902 14.482 10.7582 13.966 11.2502C13.558 11.6342 13.276 11.9642 13.12 12.2402C12.976 12.5162 12.904 12.8642 12.904 13.2842V13.5722H10.528V12.9782ZM11.698 18.1082C11.266 18.1082 10.894 17.9582 10.582 17.6582C10.282 17.3462 10.132 16.9742 10.132 16.5422C10.132 16.1102 10.282 15.7442 10.582 15.4442C10.894 15.1442 11.266 14.9942 11.698 14.9942C12.13 14.9942 12.496 15.1442 12.796 15.4442C13.096 15.7442 13.246 16.1102 13.246 16.5422C13.246 16.9742 13.096 17.3462 12.796 17.6582C12.496 17.9582 12.13 18.1082 11.698 18.1082Z" fill="white"/>
</svg>
