<svg width="18" height="18" viewBox="0 0 18 18" fill="none" xmlns="http://www.w3.org/2000/svg">
  <path fill-rule="evenodd" clip-rule="evenodd" d="M11.3319 3.08325C10.5707 1.56088 9.70413 1 9.04432 1C8.3845 1 7.51795 1.56088 6.75676 3.08325C6.72534 3.1461 6.69437 3.21011 6.66389 3.27526C7.4263 3.43553 8.22782 3.67968 9.04428 4.00627C9.86077 3.67967 10.6623 3.43552 11.4247 3.27524C11.3943 3.21011 11.3633 3.1461 11.3319 3.08325ZM9.04432 0C7.68572 0 6.46774 1.20413 5.64264 3.10789C3.58127 2.87051 1.92937 3.32323 1.25005 4.49986C0.570734 5.67646 1.00459 7.33338 2.24081 8.99986C1.00459 10.6663 0.570735 12.3233 1.25005 13.4999C1.92936 14.6765 3.58121 15.1292 5.64252 14.8918C6.46763 16.7958 7.68565 18 9.04432 18C10.403 18 11.621 16.7958 12.4461 14.8918C14.5074 15.1292 16.1592 14.6764 16.8385 13.4999C17.5178 12.3233 17.084 10.6663 15.8477 8.99986C17.084 7.33338 17.5178 5.67647 16.8385 4.49986C16.1592 3.32325 14.5073 2.87052 12.446 3.10789C11.6209 1.20413 10.4029 0 9.04432 0ZM6.75676 14.9167C6.7253 14.8538 6.69429 14.7897 6.66377 14.7245C7.42622 14.5642 8.22777 14.3201 9.04428 13.9935C9.86081 14.3201 10.6624 14.5642 11.4249 14.7245C11.3943 14.7897 11.3633 14.8538 11.3319 14.9167C10.5707 16.4391 9.70413 17 9.04432 17C8.3845 17 7.51795 16.4391 6.75676 14.9167ZM13.0246 13.9393C12.9544 13.9351 12.8835 13.9299 12.8118 13.9237C13.0542 13.1833 13.2435 12.367 13.3689 11.4966C14.06 10.9528 14.6722 10.3807 15.1922 9.80061C15.2334 9.85962 15.2734 9.91848 15.3121 9.97715C16.2499 11.3975 16.3024 12.4284 15.9725 12.9999C15.6426 13.5713 14.7236 14.0413 13.0246 13.9393ZM11.8048 13.781C11.9593 13.3333 12.0937 12.8494 12.204 12.3355C11.9109 12.5287 11.6074 12.7162 11.2943 12.897C10.9812 13.0777 10.6671 13.2468 10.3533 13.404C10.8535 13.5655 11.3397 13.691 11.8048 13.781ZM14.5651 8.99986C14.2546 9.35759 13.9028 9.71587 13.5129 10.0683C13.5337 9.71794 13.5443 9.36146 13.5443 9C13.5443 8.63844 13.5337 8.28186 13.5129 7.93145C13.9028 8.28384 14.2546 8.64212 14.5651 8.99986ZM12.5443 9C12.5443 8.32293 12.5048 7.66828 12.4313 7.04439C11.9278 6.66878 11.3806 6.30729 10.7943 5.96877C10.208 5.63026 9.62132 5.33714 9.04428 5.08888C8.46724 5.33714 7.8806 5.63026 7.29428 5.96877C6.70798 6.30727 6.16083 6.66874 5.65733 7.04433C5.5838 7.66824 5.54432 8.32291 5.54432 9C5.54432 9.67698 5.58378 10.3315 5.65729 10.9554C6.16081 11.331 6.70797 11.6924 7.29428 12.0309C7.88059 12.3695 8.46724 12.6626 9.04428 12.9108C9.62131 12.6626 10.208 12.3695 10.7943 12.0309C11.3806 11.6924 11.9278 11.3309 12.4313 10.9553C12.5048 10.3315 12.5443 9.67695 12.5443 9ZM15.1922 8.19911C14.6722 7.61895 14.06 7.04688 13.3689 6.50308C13.2435 5.63266 13.0541 4.81642 12.8117 4.07599C12.8834 4.06981 12.9544 4.06462 13.0246 4.06041C14.7236 3.95843 15.6426 4.42844 15.9725 4.99986C16.3024 5.57127 16.2499 6.60217 15.3121 8.02256C15.2734 8.08124 15.2334 8.1401 15.1922 8.19911ZM12.2039 5.66415C12.0936 5.15029 11.9593 4.66645 11.8047 4.21869C11.3396 4.30871 10.8534 4.43425 10.3533 4.5957C10.6671 4.75294 10.9812 4.92198 11.2943 5.10274C11.6074 5.28351 11.9108 5.47101 12.2039 5.66415ZM2.89637 8.19911C3.41641 7.61893 4.02865 7.04684 4.71976 6.50301C4.84518 5.63263 5.03451 4.81641 5.27693 4.076C5.2052 4.06982 5.13421 4.06462 5.064 4.0604C3.36499 3.95842 2.44598 4.42844 2.11607 4.99986C1.78617 5.57127 1.83862 6.60217 2.77645 8.02256C2.81519 8.08124 2.85517 8.1401 2.89637 8.19911ZM6.28395 4.2187C6.12937 4.66644 5.99499 5.15026 5.88475 5.66409C6.1778 5.47098 6.48122 5.28349 6.79428 5.10274C7.10737 4.92198 7.42147 4.75294 7.73527 4.5957C7.23516 4.43425 6.74898 4.30872 6.28395 4.2187ZM4.54432 9C4.54432 8.63841 4.55498 8.28181 4.57571 7.93137C4.1858 8.28379 3.83396 8.6421 3.52346 8.99986C3.83395 9.35761 4.18578 9.71591 4.57569 10.0683C4.55497 9.71799 4.54432 9.36148 4.54432 9ZM2.89637 9.80061C3.41639 10.3808 4.02862 10.9529 4.71972 11.4967C4.84512 12.3671 5.03443 13.1833 5.27684 13.9237C5.20514 13.9299 5.13419 13.9351 5.064 13.9393C3.36499 14.0413 2.44598 13.5713 2.11607 12.9999C1.78617 12.4284 1.83863 11.3975 2.77645 9.97715C2.81519 9.91848 2.85517 9.85962 2.89637 9.80061ZM6.28386 13.781C6.12929 13.3333 5.99491 12.8494 5.88468 12.3356C6.17775 12.5287 6.48119 12.7162 6.79428 12.897C7.10737 13.0777 7.42147 13.2468 7.73527 13.404C7.23513 13.5655 6.74892 13.691 6.28386 13.781ZM10.0001 9C10.0001 9.55228 9.55241 10 9.00013 10C8.44784 10 8.00013 9.55228 8.00013 9C8.00013 8.44772 8.44784 8 9.00013 8C9.55241 8 10.0001 8.44772 10.0001 9ZM11.0001 9C11.0001 10.1046 10.1047 11 9.00013 11C7.89556 11 7.00013 10.1046 7.00013 9C7.00013 7.89543 7.89556 7 9.00013 7C10.1047 7 11.0001 7.89543 11.0001 9Z" fill="#757575"/>
</svg>
