<svg width="17" height="20" viewBox="0 0 17 20" fill="none" xmlns="http://www.w3.org/2000/svg">
  <path d="M16.6415 6.50748C16.7624 6.60226 16.833 6.74733 16.833 6.90093L16.833 18.884C16.833 19.1602 16.6091 19.384 16.333 19.384L12.333 19.384C12.0569 19.384 11.833 19.1602 11.833 18.884L11.833 15.884L11.833 15.4896C11.833 14.4865 11.3317 13.5498 10.4971 12.9934C9.48941 12.3216 8.17661 12.3216 7.16891 12.9934C6.33431 13.5498 5.83301 14.4865 5.83301 15.4896L5.83301 15.884L5.83301 18.884C5.83301 19.1602 5.60915 19.384 5.33301 19.384L1.33301 19.384C1.05687 19.384 0.833008 19.1602 0.833008 18.884L0.833008 6.90093C0.833008 6.74733 0.903602 6.60226 1.02447 6.50748L8.52447 0.625991C8.70563 0.483923 8.96039 0.483923 9.14155 0.625991L16.6415 6.50748Z" fill="#757575"/>
</svg>
