<svg width="22" height="18" viewBox="0 0 22 18" fill="none" xmlns="http://www.w3.org/2000/svg">
  <path fill-rule="evenodd" clip-rule="evenodd" d="M16.333 0.384033L6.33301 0.384033C5.50458 0.384033 4.83301 1.05561 4.83301 1.88403L4.83301 3.38403L1.33301 3.38403C1.05687 3.38403 0.833008 3.60789 0.833008 3.88403L0.833008 16.884C0.833008 17.1602 1.05687 17.384 1.33301 17.384L21.333 17.384C21.6091 17.384 21.833 17.1602 21.833 16.884L21.833 3.88403C21.833 3.60789 21.6091 3.38403 21.333 3.38403L17.833 3.38403L17.833 1.88403C17.833 1.05561 17.1614 0.384033 16.333 0.384033ZM16.833 3.38403L16.833 1.88403C16.833 1.60789 16.6091 1.38403 16.333 1.38403L6.33301 1.38403C6.05687 1.38403 5.83301 1.60789 5.83301 1.88403L5.83301 3.38403L16.833 3.38403Z" fill="#757575"/>
</svg>
