<svg width="22" height="14" viewBox="0 0 22 14" fill="none" xmlns="http://www.w3.org/2000/svg">
  <path fill-rule="evenodd" clip-rule="evenodd" d="M0.833008 1.2169C0.833008 1.20504 0.846519 1.19817 0.856251 1.20494L10.7619 8.09585C11.1052 8.33465 11.5608 8.33465 11.9041 8.09585L21.8098 1.20494C21.8176 1.19947 21.8254 1.19393 21.833 1.18833L21.833 12.884C21.833 13.4363 21.3853 13.884 20.833 13.884L1.83301 13.884C1.28072 13.884 0.833008 13.4363 0.833008 12.884L0.833008 1.2169ZM11.9041 6.87769C11.5608 7.11648 11.1052 7.11648 10.7619 6.87769L1.68907 0.566124C1.60869 0.510204 1.64825 0.384033 1.74618 0.384033L21.2387 0.384033L11.9041 6.87769Z" fill="#757575"/>
</svg>
