<svg width="20" height="23" viewBox="0 0 20 23" fill="none" xmlns="http://www.w3.org/2000/svg">
  <path fill-rule="evenodd" clip-rule="evenodd" d="M10.2213 2.188C9.86358 2.188 9.51682 2.20009 9.18111 2.22525C9.0626 2.04022 8.99408 1.82134 8.99408 1.58677C8.99408 0.922518 9.54357 0.384033 10.2214 0.384033C10.8992 0.384033 11.4488 0.922518 11.4488 1.58677C11.4488 1.82135 11.3802 2.04024 11.2617 2.22527C10.926 2.20009 10.5791 2.188 10.2213 2.188ZM13.3107 20.2289L10.2213 20.2289L7.13219 20.2289C7.2352 21.0915 7.56309 21.6525 7.98772 22.0153C8.51795 22.4682 9.28774 22.6882 10.2214 22.6882C11.1551 22.6882 11.9249 22.4682 12.4551 22.0153C12.8797 21.6525 13.2076 21.0915 13.3107 20.2289ZM10.2213 3.39072C7.58015 3.39072 5.88608 4.09186 4.79723 5.71913C3.66045 7.41801 3.10273 10.2324 3.10273 14.6751C3.10273 14.7923 3.0678 14.907 3.00224 15.0049L0.934516 18.0951C0.666911 18.495 0.959674 19.0261 1.44769 19.0261L10.2213 19.0261L18.9949 19.0261C19.4829 19.0261 19.7756 18.495 19.508 18.0951L17.4403 15.0049C17.3748 14.907 17.3398 14.7923 17.3398 14.6751C17.3398 10.2324 16.7821 7.41801 15.6453 5.71913C14.5565 4.09186 12.8624 3.39072 10.2213 3.39072Z" fill="#757575"/>
</svg>
