<svg width="14" height="20" viewBox="0 0 14 20" fill="none" xmlns="http://www.w3.org/2000/svg">
  <path fill-rule="evenodd" clip-rule="evenodd" d="M7 0.5C3.3654 0.5 0.5 3.56372 0.5 7.78274C0.5 8.89081 0.912089 10.1331 1.48603 11.3393C2.06457 12.5551 2.83103 13.7818 3.58971 14.8717C4.34951 15.9632 5.10825 16.9269 5.67658 17.6173C5.69435 17.6389 5.71194 17.6602 5.72934 17.6813C5.99034 17.9972 6.20863 18.2525 6.3648 18.4324C6.44811 18.5283 6.51378 18.6028 6.55887 18.6536L6.61073 18.7117L6.62441 18.7269L6.62807 18.731L6.62908 18.7321L6.62939 18.7324C6.62948 18.7325 6.62955 18.7326 6.99685 18.3999L6.62955 18.7326L7.00031 19.1419L7.37088 18.7324L7.00014 18.397C7.37088 18.7324 7.37095 18.7324 7.37105 18.7323L7.37135 18.7319L7.37237 18.7308L7.37602 18.7267L7.3897 18.7115L7.44156 18.6533C7.48666 18.6025 7.55233 18.5279 7.63563 18.4319C7.80221 18.2399 8.03946 17.9618 8.32383 17.616C8.89214 16.9248 9.65086 15.9599 10.4106 14.8669C11.1693 13.7755 11.9357 12.5468 12.5142 11.3287C13.0881 10.1202 13.5 8.87543 13.5 7.7646C13.5 3.53098 10.6323 0.5 7 0.5ZM7.51134 17.0295C7.31273 17.2704 7.13928 17.4755 6.99995 17.6378C6.85134 17.4648 6.66397 17.2434 6.44866 16.9818C5.89195 16.3055 5.15066 15.3637 4.41043 14.3004C3.66908 13.2354 2.9355 12.058 2.38901 10.9096C1.83793 9.75149 1.5 8.66958 1.5 7.78274C1.5 4.02206 4.00717 1.5 7 1.5C9.99503 1.5 12.5 3.9943 12.5 7.7646C12.5 8.65475 12.1619 9.73947 11.6109 10.8997C11.5426 11.0436 11.4713 11.1878 11.3975 11.3323C10.8809 12.3435 10.2382 13.363 9.58951 14.2961C9.54325 14.3627 9.49699 14.4288 9.45076 14.4943C8.75738 15.4778 8.07328 16.3461 7.5514 16.9809C7.53794 16.9973 7.52458 17.0135 7.51134 17.0295ZM4.21179 7.23233C4.21179 5.56348 5.48919 4.2537 7 4.2537C8.5108 4.2537 9.7882 5.56348 9.7882 7.23233C9.7882 8.90119 8.5108 10.211 7 10.211C5.48919 10.211 4.21179 8.90119 4.21179 7.23233ZM7 3.2537C4.88461 3.2537 3.21179 5.06499 3.21179 7.23233C3.21179 9.39968 4.88461 11.211 7 11.211C9.11539 11.211 10.7882 9.39968 10.7882 7.23233C10.7882 5.06499 9.11539 3.2537 7 3.2537Z" fill="#757575"/>
</svg>
