<svg width="22" height="20" viewBox="0 0 22 20" fill="none" xmlns="http://www.w3.org/2000/svg">
  <path fill-rule="evenodd" clip-rule="evenodd" d="M11 6.24051C11 3.34625 8.76142 1 6 1C3.23858 1 1 3.34625 1 6.24051C1 10.2393 5.2007 13.8049 8.23369 16.3794C9.16761 17.1721 9.99082 17.8709 10.5466 18.4593C10.7834 18.7101 11.2166 18.7101 11.4534 18.4593C12.0092 17.8709 12.8324 17.1721 13.7663 16.3794C16.7993 13.8049 21 10.2393 21 6.24051C21 3.34625 18.7614 1 16 1C13.2386 1 11 3.34625 11 6.24051Z" fill="#F05A28"/>
  <path d="M10.5 6.24051C10.5 6.51665 10.7239 6.74051 11 6.74051C11.2761 6.74051 11.5 6.51665 11.5 6.24051H10.5ZM8.23369 16.3794L8.55725 15.9982L8.23369 16.3794ZM13.7663 16.3794L13.4428 15.9982L13.7663 16.3794ZM10.5466 18.4593L10.9101 18.116L10.5466 18.4593ZM11.4534 18.4593L11.0899 18.116L11.4534 18.4593ZM6 1.5C8.4634 1.5 10.5 3.6 10.5 6.24051H11.5C11.5 3.09251 9.05944 0.5 6 0.5V1.5ZM1.5 6.24051C1.5 3.6 3.5366 1.5 6 1.5V0.5C2.94056 0.5 0.5 3.09251 0.5 6.24051H1.5ZM8.55725 15.9982C7.03503 14.7061 5.26049 13.1982 3.86339 11.5238C2.46179 9.84389 1.5 8.06572 1.5 6.24051H0.5C0.5 8.4141 1.63856 10.4181 3.09555 12.1644C4.55705 13.9161 6.39936 15.4782 7.91012 16.7606L8.55725 15.9982ZM10.9101 18.116C10.331 17.5028 9.48266 16.7837 8.55725 15.9982L7.91012 16.7606C8.85256 17.5605 9.65067 18.2389 10.1831 18.8026L10.9101 18.116ZM11.8169 18.8026C12.3493 18.2389 13.1474 17.5605 14.0899 16.7606L13.4428 15.9982C12.5173 16.7837 11.669 17.5028 11.0899 18.116L11.8169 18.8026ZM14.0899 16.7606C15.6006 15.4782 17.4429 13.9161 18.9044 12.1644C20.3614 10.4181 21.5 8.4141 21.5 6.24051H20.5C20.5 8.06572 19.5382 9.84389 18.1366 11.5238C16.7395 13.1982 14.965 14.7061 13.4428 15.9982L14.0899 16.7606ZM21.5 6.24051C21.5 3.09251 19.0594 0.5 16 0.5V1.5C18.4634 1.5 20.5 3.6 20.5 6.24051H21.5ZM16 0.5C12.9406 0.5 10.5 3.09251 10.5 6.24051H11.5C11.5 3.6 13.5366 1.5 16 1.5V0.5ZM10.1831 18.8026C10.6172 19.2623 11.3828 19.2623 11.8169 18.8026L11.0899 18.116C11.0772 18.1295 11.0473 18.1474 11 18.1474C10.9527 18.1474 10.9228 18.1295 10.9101 18.116L10.1831 18.8026Z" fill="#F05A28"/>
</svg>
