<svg width="24" height="24" viewBox="0 0 24 24" fill="none" xmlns="http://www.w3.org/2000/svg">
  <path fill-rule="evenodd" clip-rule="evenodd" d="M0.441555 20.9262C1.11791 20.3011 6.32493 15.2435 7.55633 14.047C6.57082 12.6057 5.99374 10.8639 5.99374 8.98709C5.99385 4.02362 10.0247 0 14.9969 0C19.9692 0 24 4.02362 24 8.98709C24 13.9506 19.9692 17.9742 14.9969 17.9742C13.2342 17.9742 11.5912 17.4666 10.2027 16.5926C9.08301 17.7013 3.82832 22.9007 3.11179 23.5565C2.78659 23.8539 2.39537 24 1.99618 24C1.50002 23.9999 0.991856 23.7741 0.584354 23.3327C-0.13645 22.5517 -0.197866 21.5172 0.441555 20.9262ZM21.8078 8.98721C21.8078 5.23834 18.7524 2.18841 14.9969 2.18841C11.2413 2.18841 8.18593 5.23834 8.18593 8.98721C8.18593 12.7361 11.2413 15.786 14.9969 15.786C18.7524 15.786 21.8078 12.7361 21.8078 8.98721Z" fill="#757575"/>
</svg>
