<svg width="11" height="18" viewBox="0 0 11 18" fill="none" xmlns="http://www.w3.org/2000/svg">
  <path fill-rule="evenodd" clip-rule="evenodd" d="M7.46153 3.06677C7.46153 4.24142 6.55069 5.13354 5.49999 5.13354C4.44929 5.13354 3.53845 4.24142 3.53845 3.06677C3.53845 1.89213 4.44929 1 5.49999 1C6.55069 1 7.46153 1.89213 7.46153 3.06677ZM7.27409 5.5226C7.99502 4.96323 8.46153 4.07142 8.46153 3.06677C8.46153 1.37304 7.1356 0 5.49999 0C3.86438 0 2.53845 1.37304 2.53845 3.06677C2.53845 4.07142 3.00496 4.96324 3.72589 5.52261C1.10434 6.37933 0 9.21464 0 12.5803C0 16.6245 0 17.5247 5.5 17.5247C11 17.5247 11 16.6245 11 12.5803C11 9.21463 9.89565 6.37932 7.27409 5.5226ZM10 12.5803C10 13.616 9.99806 14.3551 9.92261 14.9285C9.84893 15.4885 9.72124 15.7382 9.58425 15.8837C9.44497 16.0317 9.16549 16.2101 8.49226 16.3385C7.81607 16.4676 6.86325 16.5247 5.5 16.5247C4.13675 16.5247 3.18393 16.4676 2.50774 16.3385C1.83451 16.2101 1.55503 16.0317 1.41575 15.8837C1.27876 15.7382 1.15107 15.4885 1.07739 14.9285C1.00194 14.3551 1 13.616 1 12.5803C1 10.6659 1.38115 9.05737 2.11653 7.95851C2.81532 6.91432 3.87663 6.25757 5.5 6.25757C7.12337 6.25757 8.18468 6.91432 8.88347 7.95851C9.61885 9.05737 10 10.6659 10 12.5803Z" fill="#757575"/>
</svg>
