<svg width="24" height="24" viewBox="0 0 24 24" fill="none" xmlns="http://www.w3.org/2000/svg">
  <circle cx="12" cy="12" r="7.5" stroke="#757575"/>
  <path d="M15.5 12C15.5 14.1483 15.0635 16.0686 14.3812 17.4332C13.6839 18.8278 12.8132 19.5 12 19.5C11.1868 19.5 10.3161 18.8278 9.61879 17.4332C8.93646 16.0686 8.5 14.1483 8.5 12C8.5 9.85165 8.93646 7.93141 9.61879 6.56675C10.3161 5.17219 11.1868 4.5 12 4.5C12.8132 4.5 13.6839 5.17219 14.3812 6.56675C15.0635 7.93141 15.5 9.85165 15.5 12Z" stroke="#757575"/>
  <path d="M12 15.5C9.85165 15.5 7.93141 15.0635 6.56675 14.3812C5.17219 13.6839 4.5 12.8132 4.5 12C4.5 11.1868 5.17219 10.3161 6.56675 9.61879C7.93141 8.93646 9.85165 8.5 12 8.5C14.1483 8.5 16.0686 8.93646 17.4332 9.61879C18.8278 10.3161 19.5 11.1868 19.5 12C19.5 12.8132 18.8278 13.6839 17.4332 14.3812C16.0686 15.0635 14.1483 15.5 12 15.5Z" stroke="#757575"/>
  <path d="M12 4.5V19.5" stroke="#757575"/>
</svg>
